<svg width="162" height="45" viewBox="0 0 162 45" fill="none" xmlns="http://www.w3.org/2000/svg">
<g filter="url(#filter0_d)">
<path d="M30.0156 35.9844C29.0781 35.9531 28.4375 35.6562 28.0938 35.0938C27.75 34.5625 27.5469 33.8125 27.4844 32.8438C27.4219 31.875 27.4531 30.7344 27.5781 29.4219C27.7031 28.0781 27.7656 26.625 27.7656 25.0625C27.7969 21.9688 27.9062 19.1562 28.0938 16.625C28.3125 14.0625 28.375 11.5781 28.2812 9.17188C28.2812 8.98438 28.2812 8.8125 28.2812 8.65625C28.2812 8.5 28.2656 8.34375 28.2344 8.1875C28.0781 8.71875 27.8906 9.32812 27.6719 10.0156C27.4844 10.6719 27.25 11.4062 26.9688 12.2188C26.4062 13.9688 25.8438 15.7656 25.2812 17.6094C24.75 19.4531 24.2188 21.25 23.6875 23C23.1875 24.7188 22.7031 26.3281 22.2344 27.8281C21.7969 29.2969 21.4062 30.5312 21.0625 31.5312C20.7188 32.5312 20.375 33.2656 20.0312 33.7344C19.7188 34.2344 19.3906 34.5781 19.0469 34.7656C18.7344 34.9531 18.4062 35.0312 18.0625 35C17.75 34.9688 17.4375 34.9375 17.125 34.9062C17 33.8438 16.7656 32.5938 16.4219 31.1562C16.0781 29.7188 15.7188 28.3438 15.3438 27.0312C14.9062 25.5 14.4219 23.9375 13.8906 22.3438C13.1719 19.5938 12.4219 17.0781 11.6406 14.7969C10.8594 12.5156 10.25 10.6406 9.8125 9.17188C9.625 10.7656 9.48438 12.5938 9.39062 14.6562C9.29688 16.7188 9.23438 18.7812 9.20312 20.8438C9.17188 22.9062 9.1875 24.8594 9.25 26.7031C9.3125 28.5156 9.40625 29.9844 9.53125 31.1094C9.5625 31.5781 9.625 32.0469 9.71875 32.5156C9.78125 32.9219 9.85938 33.3281 9.95312 33.7344C10.0781 34.1719 10.2188 34.5625 10.375 34.9062C10.2188 35.0312 10.0312 35.1406 9.8125 35.2344C9.59375 35.3281 9.35938 35.4062 9.10938 35.4688C8.82812 35.5625 8.53125 35.6406 8.21875 35.7031C7 35.9531 6.10938 35.9219 5.54688 35.6094C5.01562 35.2969 4.6875 34.6719 4.5625 33.7344C4.5 33.2656 4.45312 32.3906 4.42188 31.1094C4.39062 29.8281 4.375 28.3594 4.375 26.7031C4.40625 25.0156 4.45312 23.25 4.51562 21.4062C4.57812 19.5625 4.67188 17.8438 4.79688 16.25C4.92188 14.9688 5.04688 13.5781 5.17188 12.0781C5.29688 10.7656 5.42188 9.25 5.54688 7.53125C5.67188 5.8125 5.8125 3.95312 5.96875 1.95312C6.0625 1.76562 6.21875 1.60937 6.4375 1.48438C6.65625 1.32812 6.89062 1.20312 7.14062 1.10938C7.42188 0.984375 7.73438 0.890625 8.07812 0.828125C8.60938 0.734375 9.07812 0.65625 9.48438 0.59375C9.82812 0.53125 10.1406 0.484375 10.4219 0.453125C10.7344 0.421875 10.8594 0.421875 10.7969 0.453125C11.2031 1.29688 11.5156 2 11.7344 2.5625C11.9531 3.09375 12.1719 3.73438 12.3906 4.48438C12.6406 5.23438 12.9375 6.21875 13.2812 7.4375C13.6562 8.65625 14.1875 10.3594 14.875 12.5469C15.8125 15.5781 16.6094 18.2188 17.2656 20.4688C17.9531 22.7188 18.4688 24.4375 18.8125 25.625C19.0312 25.2188 19.25 24.7812 19.4688 24.3125C19.6875 23.8125 19.9062 23.2188 20.125 22.5312C20.375 21.8438 20.625 21.0469 20.875 20.1406C21.1562 19.2031 21.4688 18.0938 21.8125 16.8125C22.25 15.4062 22.7031 13.8906 23.1719 12.2656C23.5469 10.8906 23.9531 9.32812 24.3906 7.57812C24.8594 5.79688 25.2969 3.95312 25.7031 2.04688C26.7031 1.64063 27.5156 1.34375 28.1406 1.15625C28.7656 0.9375 29.25 0.765625 29.5938 0.640625C30 0.515625 30.2969 0.4375 30.4844 0.40625C30.6719 0.4375 30.8594 0.53125 31.0469 0.6875C31.2031 0.84375 31.3906 1.0625 31.6094 1.34375C31.8281 1.625 32.0625 2.04688 32.3125 2.60938C32.3125 3.04688 32.3125 3.75 32.3125 4.71875C32.3125 5.6875 32.3125 6.8125 32.3125 8.09375C32.3125 9.34375 32.2969 10.7031 32.2656 12.1719C32.2344 13.6406 32.2031 15.125 32.1719 16.625C32.1719 18.0938 32.1562 19.5312 32.125 20.9375C32.125 22.3438 32.1094 23.5938 32.0781 24.6875C32.0156 26.3438 32 27.75 32.0312 28.9062C32.0938 30.0625 32.1875 31.0312 32.3125 31.8125C32.4688 32.5625 32.6562 33.1719 32.875 33.6406C33.125 34.1094 33.4219 34.4844 33.7656 34.7656C33.6719 34.8281 33.4844 34.9219 33.2031 35.0469C32.9531 35.2031 32.6406 35.3438 32.2656 35.4688C31.8906 35.625 31.5 35.75 31.0938 35.8438C30.6875 35.9375 30.3281 35.9844 30.0156 35.9844ZM47.3125 14.5625C47.3125 14.2188 47.5156 13.9688 47.9219 13.8125C48.3594 13.625 48.8125 13.5312 49.2812 13.5312C49.7812 13.5312 50.2344 13.625 50.6406 13.8125C51.0469 13.9688 51.2344 14.1875 51.2031 14.4688C51.1719 14.6875 51.1406 15.125 51.1094 15.7812C51.0781 16.4062 51.0312 17.1562 50.9688 18.0312C50.9375 18.9062 50.8906 19.8438 50.8281 20.8438C50.7656 21.8438 50.7031 22.8281 50.6406 23.7969C50.6094 24.7344 50.5781 25.6094 50.5469 26.4219C50.5469 27.2344 50.5469 27.8594 50.5469 28.2969C50.5469 28.8594 50.5781 29.375 50.6406 29.8438C50.7031 30.25 50.7812 30.6562 50.875 31.0625C50.9688 31.4375 51.1094 31.7031 51.2969 31.8594C51.0469 31.9531 50.7812 32.0156 50.5 32.0469C50.25 32.0781 50.0156 32.1094 49.7969 32.1406C49.5469 32.1719 49.2969 32.1875 49.0469 32.1875C48.5156 32.1875 48.0625 32.0781 47.6875 31.8594C47.3438 31.6406 47.1719 31.1875 47.1719 30.5C47.1719 30.1562 47.1875 29.6562 47.2188 29C47.2812 28.3438 47.3438 27.6406 47.4062 26.8906C47.1875 27.5469 46.9219 28.2188 46.6094 28.9062C46.2969 29.5938 45.9062 30.2031 45.4375 30.7344C45 31.2656 44.5 31.7031 43.9375 32.0469C43.375 32.3906 42.7344 32.5625 42.0156 32.5625C41.2031 32.5625 40.4531 32.3906 39.7656 32.0469C39.1094 31.7031 38.5312 31.2188 38.0312 30.5938C37.5312 29.9375 37.1562 29.1406 36.9062 28.2031C36.6562 27.2656 36.5625 26.1875 36.625 24.9688C36.625 24.0312 36.6406 23.0312 36.6719 21.9688C36.7031 21.0625 36.75 20.0156 36.8125 18.8281C36.875 17.6406 36.9844 16.4062 37.1406 15.125C37.1719 15 37.3906 14.8438 37.7969 14.6562C38.2031 14.4688 38.6562 14.3125 39.1562 14.1875C39.6562 14.0625 40.1406 14.0156 40.6094 14.0469C41.0781 14.0781 41.4219 14.2656 41.6406 14.6094C41.4844 15.1719 41.3281 15.8438 41.1719 16.625C41.0156 17.375 40.875 18.1562 40.75 18.9688C40.625 19.7812 40.5312 20.5781 40.4688 21.3594C40.4062 22.1406 40.375 22.8594 40.375 23.5156C40.375 24.1094 40.4062 24.7656 40.4688 25.4844C40.5312 26.1719 40.6406 26.8281 40.7969 27.4531C40.9844 28.0469 41.2344 28.5469 41.5469 28.9531C41.8906 29.3594 42.3281 29.5625 42.8594 29.5625C43.4531 29.5625 43.9688 29.3125 44.4062 28.8125C44.875 28.2812 45.2656 27.6094 45.5781 26.7969C45.8906 25.9844 46.1562 25.0625 46.375 24.0312C46.5938 22.9688 46.7656 21.9219 46.8906 20.8906C47.0469 19.8594 47.1406 18.875 47.1719 17.9375C47.2344 16.9688 47.2812 16.1562 47.3125 15.5V14.5625ZM60.5781 1.625C60.5156 2.75 60.4062 4.04687 60.25 5.51562C60.0938 6.98438 59.9219 8.5625 59.7344 10.25C59.5781 11.9375 59.4062 13.7031 59.2188 15.5469C59.0625 17.3906 58.9219 19.25 58.7969 21.125C58.6719 23 58.6094 24.5312 58.6094 25.7188C58.6406 26.875 58.7188 27.8281 58.8438 28.5781C58.9688 29.3281 59.1406 29.9219 59.3594 30.3594C59.5781 30.7969 59.8594 31.2188 60.2031 31.625C59.7969 31.875 59.4219 32.0625 59.0781 32.1875C58.7344 32.3125 58.4375 32.4062 58.1875 32.4688C57.875 32.5625 57.5938 32.6094 57.3438 32.6094C56.875 32.6094 56.4688 32.3906 56.125 31.9531C55.7812 31.4844 55.5 30.8906 55.2812 30.1719C55.0938 29.4531 54.9375 28.6562 54.8125 27.7812C54.7188 26.875 54.6719 25.9844 54.6719 25.1094C54.6719 24.1719 54.7031 23.0938 54.7656 21.875C54.8281 20.625 54.8906 19.3125 54.9531 17.9375C55.0469 16.5312 55.1406 15.0781 55.2344 13.5781C55.3281 12.0469 55.4062 10.5312 55.4688 9.03125C55.5312 7.875 55.5938 6.82812 55.6562 5.89062C55.7188 5.07812 55.7656 4.34375 55.7969 3.6875C55.8281 3 55.8125 2.59375 55.75 2.46875C55.9375 2.21875 56.1719 2.03125 56.4531 1.90625C56.7344 1.78125 57 1.67188 57.25 1.57812C57.5625 1.48438 57.875 1.40625 58.1875 1.34375H59.0781C59.3281 1.34375 59.5938 1.375 59.875 1.4375C60.1562 1.46875 60.3906 1.53125 60.5781 1.625ZM80.4062 11.1406C80.0625 11.0781 79.5938 11.0156 79 10.9531C78.4375 10.8906 77.8594 10.8438 77.2656 10.8125C76.5781 10.7812 75.8438 10.7656 75.0625 10.7656C74.2812 10.7031 73.2969 10.7031 72.1094 10.7656C70.9531 10.7969 69.7344 10.8125 68.4531 10.8125C68.4219 11.625 68.3594 12.4531 68.2656 13.2969C68.2031 14.1406 68.1406 14.9688 68.0781 15.7812C67.9219 17.2812 67.7812 18.8125 67.6562 20.375C67.5625 21.9375 67.5156 23.4219 67.5156 24.8281C67.5156 26.2344 67.5938 27.5156 67.75 28.6719C67.9375 29.7969 68.2656 30.6875 68.7344 31.3438C68.3594 31.625 67.9531 31.8438 67.5156 32C67.0781 32.125 66.6875 32.2188 66.3438 32.2812C65.9375 32.375 65.5312 32.4219 65.125 32.4219C64.75 32.4219 64.4375 32.2969 64.1875 32.0469C63.9375 31.7969 63.7969 31.3594 63.7656 30.7344C63.7031 29.6719 63.6875 28.6094 63.7188 27.5469C63.7812 26.4531 63.8438 25.3125 63.9062 24.125C64 22.9375 64.0938 21.6719 64.1875 20.3281C64.2812 18.9531 64.375 17.4531 64.4688 15.8281C64.5625 14.1406 64.6094 12.5 64.6094 10.9062C63.4219 10.9375 62.4219 10.9531 61.6094 10.9531C60.7969 10.9531 60.3438 10.9375 60.25 10.9062C60.1562 10.8438 60.0469 10.7031 59.9219 10.4844C59.7969 10.2969 59.6406 10.0156 59.4531 9.64062C59.2344 9.26562 58.9688 8.73438 58.6562 8.04688C59.25 8.04688 59.9062 8.04688 60.625 8.04688C61.3125 8.04688 61.9531 8.03125 62.5469 8C63.2344 7.96875 63.9219 7.9375 64.6094 7.90625C64.5781 7.40625 64.5625 6.875 64.5625 6.3125C64.5312 5.875 64.5156 5.39063 64.5156 4.85938C64.5156 4.29688 64.5 3.78125 64.4688 3.3125C64.4688 3.125 64.6875 2.90625 65.125 2.65625C65.5938 2.375 66.0938 2.125 66.625 1.90625C67.1562 1.6875 67.6406 1.54688 68.0781 1.48438C68.5469 1.42187 68.7812 1.53125 68.7812 1.8125C68.7812 2.09375 68.7656 2.78125 68.7344 3.875C68.7344 4.9375 68.7031 6.23438 68.6406 7.76562C68.9531 7.76562 69.1875 7.75 69.3438 7.71875C71 7.65625 72.3281 7.59375 73.3281 7.53125C74.3594 7.4375 75.2031 7.42187 75.8594 7.48438C76.5156 7.54688 77.0938 7.70312 77.5938 7.95312C78.0938 8.20312 78.6562 8.60938 79.2812 9.17188C79.5 9.35938 79.6875 9.5625 79.8438 9.78125C80 9.96875 80.125 10.1875 80.2188 10.4375C80.3438 10.6562 80.4062 10.8906 80.4062 11.1406ZM72.8125 15.4062C72.8125 15.2188 73.0625 15.0156 73.5625 14.7969C74.0625 14.5781 74.6094 14.4062 75.2031 14.2812C75.8281 14.125 76.3906 14.0469 76.8906 14.0469C77.4219 14.0156 77.6875 14.125 77.6875 14.375C77.6875 14.8438 77.6562 15.5156 77.5938 16.3906C77.5312 17.2344 77.4531 18.1406 77.3594 19.1094C77.2656 20.0469 77.1719 21 77.0781 21.9688C76.9844 22.9062 76.9219 23.7031 76.8906 24.3594C76.8281 25.0469 76.7656 25.7969 76.7031 26.6094C76.6406 27.2969 76.5938 28.0625 76.5625 28.9062C76.5312 29.75 76.5312 30.6094 76.5625 31.4844C76.5625 31.6406 76.4062 31.7969 76.0938 31.9531C75.7812 32.1094 75.4375 32.2188 75.0625 32.2812C74.6875 32.375 74.3281 32.4219 73.9844 32.4219C73.6406 32.4219 73.4531 32.3594 73.4219 32.2344C73.3594 32.1094 73.2969 31.8906 73.2344 31.5781C73.1719 31.2656 73.1094 30.8281 73.0469 30.2656C72.9844 29.6719 72.9375 28.9219 72.9062 28.0156C72.875 27.0781 72.8906 25.9531 72.9531 24.6406C73.0781 22.0469 73.0938 20.0469 73 18.6406C72.9062 17.2031 72.8438 16.125 72.8125 15.4062ZM76.0938 6.07812C76.7188 6.07812 77.3125 6.26562 77.875 6.64062C78.4375 7.01562 78.7188 7.51562 78.7188 8.14062C78.7188 8.60938 78.5938 9.0625 78.3438 9.5C78.125 9.9375 77.8438 10.3281 77.5 10.6719C77.1562 11.0156 76.7656 11.2969 76.3281 11.5156C75.8906 11.7031 75.4844 11.7969 75.1094 11.7969C74.6094 11.7969 74.2031 11.7188 73.8906 11.5625C73.5781 11.375 73.3281 11.1719 73.1406 10.9531C72.9844 10.7031 72.875 10.4375 72.8125 10.1562C72.75 9.875 72.7188 9.60938 72.7188 9.35938C72.7188 9.04688 72.7656 8.70312 72.8594 8.32812C72.9531 7.92188 73.125 7.5625 73.375 7.25C73.625 6.90625 73.9688 6.625 74.4062 6.40625C74.8438 6.1875 75.4062 6.07812 76.0938 6.07812ZM74.9219 10.4375C75.1094 10.4375 75.3125 10.375 75.5312 10.25C75.7812 10.0938 76 9.92188 76.1875 9.73438C76.4062 9.54688 76.5781 9.34375 76.7031 9.125C76.8594 8.90625 76.9375 8.71875 76.9375 8.5625C76.9375 8.3125 76.8125 8.1875 76.5625 8.1875C76.4062 8.1875 76.2031 8.25 75.9531 8.375C75.7344 8.5 75.5156 8.65625 75.2969 8.84375C75.0781 9 74.8906 9.1875 74.7344 9.40625C74.6094 9.59375 74.5469 9.78125 74.5469 9.96875C74.5469 10.2812 74.6719 10.4375 74.9219 10.4375ZM87.2969 23.5156C86.7656 23.9531 86.4688 24.7344 86.4062 25.8594C86.375 26.9531 86.5625 28.0781 86.9688 29.2344C87.4062 30.3594 88.0625 31.3594 88.9375 32.2344C89.8125 33.1094 90.9062 33.5469 92.2188 33.5469C93.0625 33.5469 93.7812 33.3438 94.375 32.9375C95 32.5312 95.5 32.0312 95.875 31.4375C96.2812 30.8125 96.5781 30.125 96.7656 29.375C96.9531 28.625 97.0469 27.8906 97.0469 27.1719C97.0469 26.1406 96.8438 25.2812 96.4375 24.5938C96.0625 23.9062 95.5469 23.3125 94.8906 22.8125C94.2656 22.2812 93.5312 21.8438 92.6875 21.5C91.875 21.125 91.0469 20.75 90.2031 20.375C89.4219 20.0625 88.4844 19.6719 87.3906 19.2031C86.2969 18.7031 85.25 18.0625 84.25 17.2812C83.25 16.4688 82.3906 15.4844 81.6719 14.3281C80.9844 13.1406 80.6406 11.6875 80.6406 9.96875C80.6406 8.84375 80.9375 7.70312 81.5312 6.54688C82.125 5.39063 82.9688 4.34375 84.0625 3.40625C85.1562 2.4375 86.4688 1.65625 88 1.0625C89.5625 0.46875 91.3125 0.171875 93.25 0.171875C95.1562 0.171875 96.7031 0.34375 97.8906 0.6875C99.0781 1.03125 100 1.48438 100.656 2.04688C101.312 2.57813 101.75 3.17188 101.969 3.82812C102.219 4.45313 102.344 5.04688 102.344 5.60938C102.344 6.17188 102.172 6.75 101.828 7.34375C101.484 7.90625 101.078 8.4375 100.609 8.9375C100.141 9.40625 99.6562 9.82812 99.1562 10.2031C98.6562 10.5469 98.25 10.7812 97.9375 10.9062C98.0938 10.5 98.25 9.9375 98.4062 9.21875C98.5625 8.5 98.5156 7.78125 98.2656 7.0625C98.0469 6.34375 97.5 5.71875 96.625 5.1875C95.7812 4.65625 94.4062 4.39062 92.5 4.39062C91.4062 4.39062 90.3438 4.5625 89.3125 4.90625C88.2812 5.25 87.3594 5.70312 86.5469 6.26562C85.7656 6.79688 85.1406 7.40625 84.6719 8.09375C84.2031 8.78125 83.9688 9.48438 83.9688 10.2031C83.9688 10.8906 84.2031 11.5312 84.6719 12.125C85.1719 12.6875 85.8281 13.2344 86.6406 13.7656C87.4844 14.2656 88.4375 14.7656 89.5 15.2656C90.5938 15.7656 91.7344 16.2656 92.9219 16.7656C94.0781 17.2656 95.2188 17.8125 96.3438 18.4062C97.4688 18.9688 98.4688 19.625 99.3438 20.375C100.25 21.125 100.969 21.9688 101.5 22.9062C102.031 23.8438 102.297 24.9219 102.297 26.1406C102.297 27.4531 102.047 28.7188 101.547 29.9375C101.078 31.125 100.391 32.1719 99.4844 33.0781C98.6094 33.9844 97.5312 34.7031 96.25 35.2344C94.9688 35.7969 93.5156 36.0781 91.8906 36.0781C90.4531 36.0781 89.0938 35.8438 87.8125 35.375C86.5312 34.9062 85.4062 34.2969 84.4375 33.5469C83.5 32.7969 82.75 31.9688 82.1875 31.0625C81.625 30.1562 81.3438 29.2656 81.3438 28.3906C81.3438 27.4531 81.5469 26.6562 81.9531 26C82.3906 25.3438 82.9219 24.8281 83.5469 24.4531C84.1719 24.0469 84.8125 23.7656 85.4688 23.6094C86.1562 23.4531 86.7656 23.4219 87.2969 23.5156ZM122.922 11.1406C122.578 11.0781 122.109 11.0156 121.516 10.9531C120.953 10.8906 120.375 10.8438 119.781 10.8125C119.094 10.7812 118.359 10.7656 117.578 10.7656C116.797 10.7031 115.812 10.7031 114.625 10.7656C113.469 10.7969 112.25 10.8125 110.969 10.8125C110.938 11.625 110.875 12.4531 110.781 13.2969C110.719 14.1406 110.656 14.9688 110.594 15.7812C110.438 17.2812 110.297 18.8125 110.172 20.375C110.078 21.9375 110.031 23.4219 110.031 24.8281C110.031 26.2344 110.109 27.5156 110.266 28.6719C110.453 29.7969 110.781 30.6875 111.25 31.3438C110.875 31.625 110.469 31.8438 110.031 32C109.594 32.125 109.203 32.2188 108.859 32.2812C108.453 32.375 108.047 32.4219 107.641 32.4219C107.266 32.4219 106.953 32.2969 106.703 32.0469C106.453 31.7969 106.312 31.3594 106.281 30.7344C106.219 29.6719 106.203 28.6094 106.234 27.5469C106.297 26.4531 106.359 25.3125 106.422 24.125C106.516 22.9375 106.609 21.6719 106.703 20.3281C106.797 18.9531 106.891 17.4531 106.984 15.8281C107.078 14.1406 107.125 12.5 107.125 10.9062C105.938 10.9375 104.938 10.9531 104.125 10.9531C103.312 10.9531 102.859 10.9375 102.766 10.9062C102.672 10.8438 102.562 10.7031 102.438 10.4844C102.312 10.2969 102.156 10.0156 101.969 9.64062C101.75 9.26562 101.484 8.73438 101.172 8.04688C101.766 8.04688 102.422 8.04688 103.141 8.04688C103.828 8.04688 104.469 8.03125 105.062 8C105.75 7.96875 106.438 7.9375 107.125 7.90625C107.094 7.40625 107.078 6.875 107.078 6.3125C107.047 5.875 107.031 5.39063 107.031 4.85938C107.031 4.29688 107.016 3.78125 106.984 3.3125C106.984 3.125 107.203 2.90625 107.641 2.65625C108.109 2.375 108.609 2.125 109.141 1.90625C109.672 1.6875 110.156 1.54688 110.594 1.48438C111.062 1.42187 111.297 1.53125 111.297 1.8125C111.297 2.09375 111.281 2.78125 111.25 3.875C111.25 4.9375 111.219 6.23438 111.156 7.76562C111.469 7.76562 111.703 7.75 111.859 7.71875C113.516 7.65625 114.844 7.59375 115.844 7.53125C116.875 7.4375 117.719 7.42187 118.375 7.48438C119.031 7.54688 119.609 7.70312 120.109 7.95312C120.609 8.20312 121.172 8.60938 121.797 9.17188C122.016 9.35938 122.203 9.5625 122.359 9.78125C122.516 9.96875 122.641 10.1875 122.734 10.4375C122.859 10.6562 122.922 10.8906 122.922 11.1406ZM127.984 23.9375C127.922 25.1562 127.703 26.2812 127.328 27.3125C126.984 28.3438 126.5 29.25 125.875 30.0312C125.25 30.7812 124.5 31.375 123.625 31.8125C122.781 32.25 121.844 32.4844 120.812 32.5156C119.906 32.5469 119.047 32.3281 118.234 31.8594C117.453 31.3906 116.766 30.7344 116.172 29.8906C115.578 29.0469 115.125 28.0469 114.812 26.8906C114.531 25.7031 114.453 24.4219 114.578 23.0469C114.672 21.4531 114.969 20.0938 115.469 18.9688C115.969 17.8125 116.5 16.8594 117.062 16.1094C117.625 15.3594 118.141 14.8125 118.609 14.4688C119.109 14.0938 119.422 13.875 119.547 13.8125C119.766 13.7188 119.969 13.7031 120.156 13.7656C120.344 13.7969 120.547 13.8438 120.766 13.9062C120.828 13.9375 120.891 14.0156 120.953 14.1406C121.078 14.3594 121.156 14.7656 121.188 15.3594C121.344 15.0156 121.547 14.7344 121.797 14.5156C122.047 14.2969 122.297 14.1406 122.547 14.0469C122.859 13.9219 123.172 13.8438 123.484 13.8125C123.703 13.7812 124.078 13.9531 124.609 14.3281C125.172 14.7031 125.703 15.2969 126.203 16.1094C126.734 16.9219 127.188 17.9844 127.562 19.2969C127.938 20.5781 128.078 22.125 127.984 23.9375ZM124.797 23.375C124.828 22.625 124.797 21.875 124.703 21.125C124.641 20.3438 124.516 19.6406 124.328 19.0156C124.172 18.3594 123.969 17.8438 123.719 17.4688C123.469 17.0625 123.219 16.8594 122.969 16.8594C122.688 16.9219 122.375 17.0625 122.031 17.2812C121.75 17.4688 121.438 17.7656 121.094 18.1719C120.75 18.5781 120.422 19.1562 120.109 19.9062C120.078 19.8125 120.047 19.6406 120.016 19.3906C119.984 19.1719 119.953 18.8906 119.922 18.5469C119.922 18.1719 119.953 17.6719 120.016 17.0469C119.578 17.5781 119.234 18.2031 118.984 18.9219C118.766 19.6406 118.594 20.3281 118.469 20.9844C118.344 21.7656 118.25 22.5469 118.188 23.3281C118.156 24.1719 118.188 25 118.281 25.8125C118.406 26.625 118.594 27.3438 118.844 27.9688C119.125 28.5938 119.453 29.0938 119.828 29.4688C120.203 29.8438 120.656 30.0156 121.188 29.9844C121.719 29.9531 122.188 29.7344 122.594 29.3281C123 28.9219 123.359 28.4062 123.672 27.7812C123.984 27.1562 124.234 26.4531 124.422 25.6719C124.609 24.8906 124.734 24.125 124.797 23.375ZM143.219 17.6094C143.219 18.0469 143.094 18.5 142.844 18.9688C142.625 19.4062 142.344 19.8281 142 20.2344C141.656 20.6406 141.266 21 140.828 21.3125C140.422 21.5938 140.031 21.7656 139.656 21.8281C139.906 20.8594 139.984 20.1094 139.891 19.5781C139.797 19.0469 139.641 18.6562 139.422 18.4062C139.172 18.125 138.859 17.9688 138.484 17.9375C137.922 17.9375 137.375 18.2656 136.844 18.9219C136.344 19.5469 135.906 20.3281 135.531 21.2656C135.156 22.1719 134.859 23.1562 134.641 24.2188C134.422 25.25 134.312 26.1875 134.312 27.0312C134.281 27.625 134.297 28.2031 134.359 28.7656C134.391 29.2344 134.438 29.7188 134.5 30.2188C134.594 30.7188 134.719 31.1094 134.875 31.3906C134.688 31.5469 134.375 31.7344 133.938 31.9531C133.531 32.1719 133.094 32.3125 132.625 32.375C132.188 32.4375 131.781 32.3594 131.406 32.1406C131.062 31.9219 130.875 31.4531 130.844 30.7344C130.781 30.0469 130.734 29.2812 130.703 28.4375C130.703 27.5625 130.703 26.7031 130.703 25.8594C130.734 24.9844 130.766 24.125 130.797 23.2812C130.828 22.4375 130.875 21.6562 130.938 20.9375C131 19.5625 131.031 18.5 131.031 17.75C131.031 17 131.016 16.2812 130.984 15.5938C130.984 15.4688 131.188 15.2969 131.594 15.0781C132.031 14.8281 132.5 14.6094 133 14.4219C133.531 14.2344 134.016 14.125 134.453 14.0938C134.891 14.0625 135.109 14.1562 135.109 14.375C135.109 14.7188 135.062 15.4062 134.969 16.4375C134.906 17.4375 134.812 18.4844 134.688 19.5781C134.906 18.9844 135.188 18.3438 135.531 17.6562C135.906 16.9688 136.328 16.3281 136.797 15.7344C137.266 15.1406 137.797 14.6562 138.391 14.2812C138.984 13.875 139.641 13.6719 140.359 13.6719C140.922 13.6719 141.375 13.8438 141.719 14.1875C142.094 14.5312 142.391 14.9219 142.609 15.3594C142.828 15.7969 142.984 16.2344 143.078 16.6719C143.172 17.1094 143.219 17.4219 143.219 17.6094ZM151 32.5156C148.812 32.5156 147.125 31.7812 145.938 30.3125C144.75 28.8438 144.156 26.9219 144.156 24.5469C144.156 22.8906 144.391 21.3438 144.859 19.9062C145.359 18.4375 146.016 17.1719 146.828 16.1094C147.641 15.0469 148.578 14.2188 149.641 13.625C150.734 13 151.875 12.6875 153.062 12.6875C154.219 12.6875 155.203 13.1094 156.016 13.9531C156.828 14.7656 157.234 15.9375 157.234 17.4688C157.234 18.4688 157.016 19.4688 156.578 20.4688C156.141 21.4375 155.562 22.3125 154.844 23.0938C154.156 23.8438 153.391 24.4531 152.547 24.9219C151.703 25.3906 150.891 25.625 150.109 25.625C149.609 25.625 149.188 25.5625 148.844 25.4375C148.5 25.3125 148.188 25.125 147.906 24.875C148 26.6562 148.391 27.9062 149.078 28.625C149.766 29.3125 150.656 29.6562 151.75 29.6562C152.5 29.6562 153.156 29.5 153.719 29.1875C154.312 28.875 154.812 28.5156 155.219 28.1094C155.625 27.7031 155.953 27.2969 156.203 26.8906C156.453 26.4531 156.625 26.125 156.719 25.9062C156.812 25.7188 156.969 25.625 157.188 25.625C157.438 25.625 157.562 25.8125 157.562 26.1875C157.562 26.5312 157.438 27.0625 157.188 27.7812C156.969 28.4688 156.594 29.1719 156.062 29.8906C155.531 30.5781 154.844 31.1875 154 31.7188C153.188 32.25 152.188 32.5156 151 32.5156ZM153.156 14.7031C152.969 14.7031 152.609 14.9062 152.078 15.3125C151.578 15.6875 151.031 16.25 150.438 17C149.875 17.75 149.344 18.6562 148.844 19.7188C148.375 20.75 148.078 21.9219 147.953 23.2344C149.828 22.7969 151.312 22.1094 152.406 21.1719C153.5 20.2344 154.047 18.8594 154.047 17.0469C154.047 16.1406 153.938 15.5312 153.719 15.2188C153.5 14.875 153.312 14.7031 153.156 14.7031Z" fill="white"/>
</g>
<defs>
<filter id="filter0_d" x="0.375" y="0.171875" width="161.188" height="43.9062" filterUnits="userSpaceOnUse" color-interpolation-filters="sRGB">
<feFlood flood-opacity="0" result="BackgroundImageFix"/>
<feColorMatrix in="SourceAlpha" type="matrix" values="0 0 0 0 0 0 0 0 0 0 0 0 0 0 0 0 0 0 127 0"/>
<feOffset dy="4"/>
<feGaussianBlur stdDeviation="2"/>
<feColorMatrix type="matrix" values="0 0 0 0 0 0 0 0 0 0 0 0 0 0 0 0 0 0 0.25 0"/>
<feBlend mode="normal" in2="BackgroundImageFix" result="effect1_dropShadow"/>
<feBlend mode="normal" in="SourceGraphic" in2="effect1_dropShadow" result="shape"/>
</filter>
</defs>
</svg>
