<svg width="163" height="45" viewBox="0 0 163 45" fill="none" xmlns="http://www.w3.org/2000/svg">
<g filter="url(#filter0_d)">
<path d="M30.5156 35.9844C29.5781 35.9531 28.9375 35.6562 28.5938 35.0938C28.25 34.5625 28.0469 33.8125 27.9844 32.8438C27.9219 31.875 27.9531 30.7344 28.0781 29.4219C28.2031 28.0781 28.2656 26.625 28.2656 25.0625C28.2969 21.9688 28.4062 19.1562 28.5938 16.625C28.8125 14.0625 28.875 11.5781 28.7812 9.17188C28.7812 8.98438 28.7812 8.8125 28.7812 8.65625C28.7812 8.5 28.7656 8.34375 28.7344 8.1875C28.5781 8.71875 28.3906 9.32812 28.1719 10.0156C27.9844 10.6719 27.75 11.4062 27.4688 12.2188C26.9062 13.9688 26.3438 15.7656 25.7812 17.6094C25.25 19.4531 24.7188 21.25 24.1875 23C23.6875 24.7188 23.2031 26.3281 22.7344 27.8281C22.2969 29.2969 21.9062 30.5312 21.5625 31.5312C21.2188 32.5312 20.875 33.2656 20.5312 33.7344C20.2188 34.2344 19.8906 34.5781 19.5469 34.7656C19.2344 34.9531 18.9062 35.0312 18.5625 35C18.25 34.9688 17.9375 34.9375 17.625 34.9062C17.5 33.8438 17.2656 32.5938 16.9219 31.1562C16.5781 29.7188 16.2188 28.3438 15.8438 27.0312C15.4062 25.5 14.9219 23.9375 14.3906 22.3438C13.6719 19.5938 12.9219 17.0781 12.1406 14.7969C11.3594 12.5156 10.75 10.6406 10.3125 9.17188C10.125 10.7656 9.98438 12.5938 9.89062 14.6562C9.79688 16.7188 9.73438 18.7812 9.70312 20.8438C9.67188 22.9062 9.6875 24.8594 9.75 26.7031C9.8125 28.5156 9.90625 29.9844 10.0312 31.1094C10.0625 31.5781 10.125 32.0469 10.2188 32.5156C10.2812 32.9219 10.3594 33.3281 10.4531 33.7344C10.5781 34.1719 10.7188 34.5625 10.875 34.9062C10.7188 35.0312 10.5312 35.1406 10.3125 35.2344C10.0938 35.3281 9.85938 35.4062 9.60938 35.4688C9.32812 35.5625 9.03125 35.6406 8.71875 35.7031C7.5 35.9531 6.60938 35.9219 6.04688 35.6094C5.51562 35.2969 5.1875 34.6719 5.0625 33.7344C5 33.2656 4.95312 32.3906 4.92188 31.1094C4.89062 29.8281 4.875 28.3594 4.875 26.7031C4.90625 25.0156 4.95312 23.25 5.01562 21.4062C5.07812 19.5625 5.17188 17.8438 5.29688 16.25C5.42188 14.9688 5.54688 13.5781 5.67188 12.0781C5.79688 10.7656 5.92188 9.25 6.04688 7.53125C6.17188 5.8125 6.3125 3.95312 6.46875 1.95312C6.5625 1.76562 6.71875 1.60937 6.9375 1.48438C7.15625 1.32812 7.39062 1.20312 7.64062 1.10938C7.92188 0.984375 8.23438 0.890625 8.57812 0.828125C9.10938 0.734375 9.57812 0.65625 9.98438 0.59375C10.3281 0.53125 10.6406 0.484375 10.9219 0.453125C11.2344 0.421875 11.3594 0.421875 11.2969 0.453125C11.7031 1.29688 12.0156 2 12.2344 2.5625C12.4531 3.09375 12.6719 3.73438 12.8906 4.48438C13.1406 5.23438 13.4375 6.21875 13.7812 7.4375C14.1562 8.65625 14.6875 10.3594 15.375 12.5469C16.3125 15.5781 17.1094 18.2188 17.7656 20.4688C18.4531 22.7188 18.9688 24.4375 19.3125 25.625C19.5312 25.2188 19.75 24.7812 19.9688 24.3125C20.1875 23.8125 20.4062 23.2188 20.625 22.5312C20.875 21.8438 21.125 21.0469 21.375 20.1406C21.6562 19.2031 21.9688 18.0938 22.3125 16.8125C22.75 15.4062 23.2031 13.8906 23.6719 12.2656C24.0469 10.8906 24.4531 9.32812 24.8906 7.57812C25.3594 5.79688 25.7969 3.95312 26.2031 2.04688C27.2031 1.64063 28.0156 1.34375 28.6406 1.15625C29.2656 0.9375 29.75 0.765625 30.0938 0.640625C30.5 0.515625 30.7969 0.4375 30.9844 0.40625C31.1719 0.4375 31.3594 0.53125 31.5469 0.6875C31.7031 0.84375 31.8906 1.0625 32.1094 1.34375C32.3281 1.625 32.5625 2.04688 32.8125 2.60938C32.8125 3.04688 32.8125 3.75 32.8125 4.71875C32.8125 5.6875 32.8125 6.8125 32.8125 8.09375C32.8125 9.34375 32.7969 10.7031 32.7656 12.1719C32.7344 13.6406 32.7031 15.125 32.6719 16.625C32.6719 18.0938 32.6562 19.5312 32.625 20.9375C32.625 22.3438 32.6094 23.5938 32.5781 24.6875C32.5156 26.3438 32.5 27.75 32.5312 28.9062C32.5938 30.0625 32.6875 31.0312 32.8125 31.8125C32.9688 32.5625 33.1562 33.1719 33.375 33.6406C33.625 34.1094 33.9219 34.4844 34.2656 34.7656C34.1719 34.8281 33.9844 34.9219 33.7031 35.0469C33.4531 35.2031 33.1406 35.3438 32.7656 35.4688C32.3906 35.625 32 35.75 31.5938 35.8438C31.1875 35.9375 30.8281 35.9844 30.5156 35.9844ZM47.8125 14.5625C47.8125 14.2188 48.0156 13.9688 48.4219 13.8125C48.8594 13.625 49.3125 13.5312 49.7812 13.5312C50.2812 13.5312 50.7344 13.625 51.1406 13.8125C51.5469 13.9688 51.7344 14.1875 51.7031 14.4688C51.6719 14.6875 51.6406 15.125 51.6094 15.7812C51.5781 16.4062 51.5312 17.1562 51.4688 18.0312C51.4375 18.9062 51.3906 19.8438 51.3281 20.8438C51.2656 21.8438 51.2031 22.8281 51.1406 23.7969C51.1094 24.7344 51.0781 25.6094 51.0469 26.4219C51.0469 27.2344 51.0469 27.8594 51.0469 28.2969C51.0469 28.8594 51.0781 29.375 51.1406 29.8438C51.2031 30.25 51.2812 30.6562 51.375 31.0625C51.4688 31.4375 51.6094 31.7031 51.7969 31.8594C51.5469 31.9531 51.2812 32.0156 51 32.0469C50.75 32.0781 50.5156 32.1094 50.2969 32.1406C50.0469 32.1719 49.7969 32.1875 49.5469 32.1875C49.0156 32.1875 48.5625 32.0781 48.1875 31.8594C47.8438 31.6406 47.6719 31.1875 47.6719 30.5C47.6719 30.1562 47.6875 29.6562 47.7188 29C47.7812 28.3438 47.8438 27.6406 47.9062 26.8906C47.6875 27.5469 47.4219 28.2188 47.1094 28.9062C46.7969 29.5938 46.4062 30.2031 45.9375 30.7344C45.5 31.2656 45 31.7031 44.4375 32.0469C43.875 32.3906 43.2344 32.5625 42.5156 32.5625C41.7031 32.5625 40.9531 32.3906 40.2656 32.0469C39.6094 31.7031 39.0312 31.2188 38.5312 30.5938C38.0312 29.9375 37.6562 29.1406 37.4062 28.2031C37.1562 27.2656 37.0625 26.1875 37.125 24.9688C37.125 24.0312 37.1406 23.0312 37.1719 21.9688C37.2031 21.0625 37.25 20.0156 37.3125 18.8281C37.375 17.6406 37.4844 16.4062 37.6406 15.125C37.6719 15 37.8906 14.8438 38.2969 14.6562C38.7031 14.4688 39.1562 14.3125 39.6562 14.1875C40.1562 14.0625 40.6406 14.0156 41.1094 14.0469C41.5781 14.0781 41.9219 14.2656 42.1406 14.6094C41.9844 15.1719 41.8281 15.8438 41.6719 16.625C41.5156 17.375 41.375 18.1562 41.25 18.9688C41.125 19.7812 41.0312 20.5781 40.9688 21.3594C40.9062 22.1406 40.875 22.8594 40.875 23.5156C40.875 24.1094 40.9062 24.7656 40.9688 25.4844C41.0312 26.1719 41.1406 26.8281 41.2969 27.4531C41.4844 28.0469 41.7344 28.5469 42.0469 28.9531C42.3906 29.3594 42.8281 29.5625 43.3594 29.5625C43.9531 29.5625 44.4688 29.3125 44.9062 28.8125C45.375 28.2812 45.7656 27.6094 46.0781 26.7969C46.3906 25.9844 46.6562 25.0625 46.875 24.0312C47.0938 22.9688 47.2656 21.9219 47.3906 20.8906C47.5469 19.8594 47.6406 18.875 47.6719 17.9375C47.7344 16.9688 47.7812 16.1562 47.8125 15.5V14.5625ZM61.0781 1.625C61.0156 2.75 60.9062 4.04687 60.75 5.51562C60.5938 6.98438 60.4219 8.5625 60.2344 10.25C60.0781 11.9375 59.9062 13.7031 59.7188 15.5469C59.5625 17.3906 59.4219 19.25 59.2969 21.125C59.1719 23 59.1094 24.5312 59.1094 25.7188C59.1406 26.875 59.2188 27.8281 59.3438 28.5781C59.4688 29.3281 59.6406 29.9219 59.8594 30.3594C60.0781 30.7969 60.3594 31.2188 60.7031 31.625C60.2969 31.875 59.9219 32.0625 59.5781 32.1875C59.2344 32.3125 58.9375 32.4062 58.6875 32.4688C58.375 32.5625 58.0938 32.6094 57.8438 32.6094C57.375 32.6094 56.9688 32.3906 56.625 31.9531C56.2812 31.4844 56 30.8906 55.7812 30.1719C55.5938 29.4531 55.4375 28.6562 55.3125 27.7812C55.2188 26.875 55.1719 25.9844 55.1719 25.1094C55.1719 24.1719 55.2031 23.0938 55.2656 21.875C55.3281 20.625 55.3906 19.3125 55.4531 17.9375C55.5469 16.5312 55.6406 15.0781 55.7344 13.5781C55.8281 12.0469 55.9062 10.5312 55.9688 9.03125C56.0312 7.875 56.0938 6.82812 56.1562 5.89062C56.2188 5.07812 56.2656 4.34375 56.2969 3.6875C56.3281 3 56.3125 2.59375 56.25 2.46875C56.4375 2.21875 56.6719 2.03125 56.9531 1.90625C57.2344 1.78125 57.5 1.67188 57.75 1.57812C58.0625 1.48438 58.375 1.40625 58.6875 1.34375H59.5781C59.8281 1.34375 60.0938 1.375 60.375 1.4375C60.6562 1.46875 60.8906 1.53125 61.0781 1.625ZM80.9062 11.1406C80.5625 11.0781 80.0938 11.0156 79.5 10.9531C78.9375 10.8906 78.3594 10.8438 77.7656 10.8125C77.0781 10.7812 76.3438 10.7656 75.5625 10.7656C74.7812 10.7031 73.7969 10.7031 72.6094 10.7656C71.4531 10.7969 70.2344 10.8125 68.9531 10.8125C68.9219 11.625 68.8594 12.4531 68.7656 13.2969C68.7031 14.1406 68.6406 14.9688 68.5781 15.7812C68.4219 17.2812 68.2812 18.8125 68.1562 20.375C68.0625 21.9375 68.0156 23.4219 68.0156 24.8281C68.0156 26.2344 68.0938 27.5156 68.25 28.6719C68.4375 29.7969 68.7656 30.6875 69.2344 31.3438C68.8594 31.625 68.4531 31.8438 68.0156 32C67.5781 32.125 67.1875 32.2188 66.8438 32.2812C66.4375 32.375 66.0312 32.4219 65.625 32.4219C65.25 32.4219 64.9375 32.2969 64.6875 32.0469C64.4375 31.7969 64.2969 31.3594 64.2656 30.7344C64.2031 29.6719 64.1875 28.6094 64.2188 27.5469C64.2812 26.4531 64.3438 25.3125 64.4062 24.125C64.5 22.9375 64.5938 21.6719 64.6875 20.3281C64.7812 18.9531 64.875 17.4531 64.9688 15.8281C65.0625 14.1406 65.1094 12.5 65.1094 10.9062C63.9219 10.9375 62.9219 10.9531 62.1094 10.9531C61.2969 10.9531 60.8438 10.9375 60.75 10.9062C60.6562 10.8438 60.5469 10.7031 60.4219 10.4844C60.2969 10.2969 60.1406 10.0156 59.9531 9.64062C59.7344 9.26562 59.4688 8.73438 59.1562 8.04688C59.75 8.04688 60.4062 8.04688 61.125 8.04688C61.8125 8.04688 62.4531 8.03125 63.0469 8C63.7344 7.96875 64.4219 7.9375 65.1094 7.90625C65.0781 7.40625 65.0625 6.875 65.0625 6.3125C65.0312 5.875 65.0156 5.39063 65.0156 4.85938C65.0156 4.29688 65 3.78125 64.9688 3.3125C64.9688 3.125 65.1875 2.90625 65.625 2.65625C66.0938 2.375 66.5938 2.125 67.125 1.90625C67.6562 1.6875 68.1406 1.54688 68.5781 1.48438C69.0469 1.42187 69.2812 1.53125 69.2812 1.8125C69.2812 2.09375 69.2656 2.78125 69.2344 3.875C69.2344 4.9375 69.2031 6.23438 69.1406 7.76562C69.4531 7.76562 69.6875 7.75 69.8438 7.71875C71.5 7.65625 72.8281 7.59375 73.8281 7.53125C74.8594 7.4375 75.7031 7.42188 76.3594 7.48438C77.0156 7.54688 77.5938 7.70312 78.0938 7.95312C78.5938 8.20312 79.1562 8.60938 79.7812 9.17188C80 9.35938 80.1875 9.5625 80.3438 9.78125C80.5 9.96875 80.625 10.1875 80.7188 10.4375C80.8438 10.6562 80.9062 10.8906 80.9062 11.1406ZM73.3125 15.4062C73.3125 15.2188 73.5625 15.0156 74.0625 14.7969C74.5625 14.5781 75.1094 14.4062 75.7031 14.2812C76.3281 14.125 76.8906 14.0469 77.3906 14.0469C77.9219 14.0156 78.1875 14.125 78.1875 14.375C78.1875 14.8438 78.1562 15.5156 78.0938 16.3906C78.0312 17.2344 77.9531 18.1406 77.8594 19.1094C77.7656 20.0469 77.6719 21 77.5781 21.9688C77.4844 22.9062 77.4219 23.7031 77.3906 24.3594C77.3281 25.0469 77.2656 25.7969 77.2031 26.6094C77.1406 27.2969 77.0938 28.0625 77.0625 28.9062C77.0312 29.75 77.0312 30.6094 77.0625 31.4844C77.0625 31.6406 76.9062 31.7969 76.5938 31.9531C76.2812 32.1094 75.9375 32.2188 75.5625 32.2812C75.1875 32.375 74.8281 32.4219 74.4844 32.4219C74.1406 32.4219 73.9531 32.3594 73.9219 32.2344C73.8594 32.1094 73.7969 31.8906 73.7344 31.5781C73.6719 31.2656 73.6094 30.8281 73.5469 30.2656C73.4844 29.6719 73.4375 28.9219 73.4062 28.0156C73.375 27.0781 73.3906 25.9531 73.4531 24.6406C73.5781 22.0469 73.5938 20.0469 73.5 18.6406C73.4062 17.2031 73.3438 16.125 73.3125 15.4062ZM76.5938 6.07812C77.2188 6.07812 77.8125 6.26562 78.375 6.64062C78.9375 7.01562 79.2188 7.51562 79.2188 8.14062C79.2188 8.60938 79.0938 9.0625 78.8438 9.5C78.625 9.9375 78.3438 10.3281 78 10.6719C77.6562 11.0156 77.2656 11.2969 76.8281 11.5156C76.3906 11.7031 75.9844 11.7969 75.6094 11.7969C75.1094 11.7969 74.7031 11.7188 74.3906 11.5625C74.0781 11.375 73.8281 11.1719 73.6406 10.9531C73.4844 10.7031 73.375 10.4375 73.3125 10.1562C73.25 9.875 73.2188 9.60938 73.2188 9.35938C73.2188 9.04688 73.2656 8.70312 73.3594 8.32812C73.4531 7.92188 73.625 7.5625 73.875 7.25C74.125 6.90625 74.4688 6.625 74.9062 6.40625C75.3438 6.1875 75.9062 6.07812 76.5938 6.07812ZM75.4219 10.4375C75.6094 10.4375 75.8125 10.375 76.0312 10.25C76.2812 10.0938 76.5 9.92188 76.6875 9.73438C76.9062 9.54688 77.0781 9.34375 77.2031 9.125C77.3594 8.90625 77.4375 8.71875 77.4375 8.5625C77.4375 8.3125 77.3125 8.1875 77.0625 8.1875C76.9062 8.1875 76.7031 8.25 76.4531 8.375C76.2344 8.5 76.0156 8.65625 75.7969 8.84375C75.5781 9 75.3906 9.1875 75.2344 9.40625C75.1094 9.59375 75.0469 9.78125 75.0469 9.96875C75.0469 10.2812 75.1719 10.4375 75.4219 10.4375ZM87.7969 23.5156C87.2656 23.9531 86.9688 24.7344 86.9062 25.8594C86.875 26.9531 87.0625 28.0781 87.4688 29.2344C87.9062 30.3594 88.5625 31.3594 89.4375 32.2344C90.3125 33.1094 91.4062 33.5469 92.7188 33.5469C93.5625 33.5469 94.2812 33.3438 94.875 32.9375C95.5 32.5312 96 32.0312 96.375 31.4375C96.7812 30.8125 97.0781 30.125 97.2656 29.375C97.4531 28.625 97.5469 27.8906 97.5469 27.1719C97.5469 26.1406 97.3438 25.2812 96.9375 24.5938C96.5625 23.9062 96.0469 23.3125 95.3906 22.8125C94.7656 22.2812 94.0312 21.8438 93.1875 21.5C92.375 21.125 91.5469 20.75 90.7031 20.375C89.9219 20.0625 88.9844 19.6719 87.8906 19.2031C86.7969 18.7031 85.75 18.0625 84.75 17.2812C83.75 16.4688 82.8906 15.4844 82.1719 14.3281C81.4844 13.1406 81.1406 11.6875 81.1406 9.96875C81.1406 8.84375 81.4375 7.70312 82.0312 6.54688C82.625 5.39063 83.4688 4.34375 84.5625 3.40625C85.6562 2.4375 86.9688 1.65625 88.5 1.0625C90.0625 0.46875 91.8125 0.171875 93.75 0.171875C95.6562 0.171875 97.2031 0.34375 98.3906 0.6875C99.5781 1.03125 100.5 1.48438 101.156 2.04688C101.812 2.57813 102.25 3.17188 102.469 3.82812C102.719 4.45313 102.844 5.04688 102.844 5.60938C102.844 6.17188 102.672 6.75 102.328 7.34375C101.984 7.90625 101.578 8.4375 101.109 8.9375C100.641 9.40625 100.156 9.82812 99.6562 10.2031C99.1562 10.5469 98.75 10.7812 98.4375 10.9062C98.5938 10.5 98.75 9.9375 98.9062 9.21875C99.0625 8.5 99.0156 7.78125 98.7656 7.0625C98.5469 6.34375 98 5.71875 97.125 5.1875C96.2812 4.65625 94.9062 4.39062 93 4.39062C91.9062 4.39062 90.8438 4.5625 89.8125 4.90625C88.7812 5.25 87.8594 5.70312 87.0469 6.26562C86.2656 6.79688 85.6406 7.40625 85.1719 8.09375C84.7031 8.78125 84.4688 9.48438 84.4688 10.2031C84.4688 10.8906 84.7031 11.5312 85.1719 12.125C85.6719 12.6875 86.3281 13.2344 87.1406 13.7656C87.9844 14.2656 88.9375 14.7656 90 15.2656C91.0938 15.7656 92.2344 16.2656 93.4219 16.7656C94.5781 17.2656 95.7188 17.8125 96.8438 18.4062C97.9688 18.9688 98.9688 19.625 99.8438 20.375C100.75 21.125 101.469 21.9688 102 22.9062C102.531 23.8438 102.797 24.9219 102.797 26.1406C102.797 27.4531 102.547 28.7188 102.047 29.9375C101.578 31.125 100.891 32.1719 99.9844 33.0781C99.1094 33.9844 98.0312 34.7031 96.75 35.2344C95.4688 35.7969 94.0156 36.0781 92.3906 36.0781C90.9531 36.0781 89.5938 35.8438 88.3125 35.375C87.0312 34.9062 85.9062 34.2969 84.9375 33.5469C84 32.7969 83.25 31.9688 82.6875 31.0625C82.125 30.1562 81.8438 29.2656 81.8438 28.3906C81.8438 27.4531 82.0469 26.6562 82.4531 26C82.8906 25.3438 83.4219 24.8281 84.0469 24.4531C84.6719 24.0469 85.3125 23.7656 85.9688 23.6094C86.6562 23.4531 87.2656 23.4219 87.7969 23.5156ZM123.422 11.1406C123.078 11.0781 122.609 11.0156 122.016 10.9531C121.453 10.8906 120.875 10.8438 120.281 10.8125C119.594 10.7812 118.859 10.7656 118.078 10.7656C117.297 10.7031 116.312 10.7031 115.125 10.7656C113.969 10.7969 112.75 10.8125 111.469 10.8125C111.438 11.625 111.375 12.4531 111.281 13.2969C111.219 14.1406 111.156 14.9688 111.094 15.7812C110.938 17.2812 110.797 18.8125 110.672 20.375C110.578 21.9375 110.531 23.4219 110.531 24.8281C110.531 26.2344 110.609 27.5156 110.766 28.6719C110.953 29.7969 111.281 30.6875 111.75 31.3438C111.375 31.625 110.969 31.8438 110.531 32C110.094 32.125 109.703 32.2188 109.359 32.2812C108.953 32.375 108.547 32.4219 108.141 32.4219C107.766 32.4219 107.453 32.2969 107.203 32.0469C106.953 31.7969 106.812 31.3594 106.781 30.7344C106.719 29.6719 106.703 28.6094 106.734 27.5469C106.797 26.4531 106.859 25.3125 106.922 24.125C107.016 22.9375 107.109 21.6719 107.203 20.3281C107.297 18.9531 107.391 17.4531 107.484 15.8281C107.578 14.1406 107.625 12.5 107.625 10.9062C106.438 10.9375 105.438 10.9531 104.625 10.9531C103.812 10.9531 103.359 10.9375 103.266 10.9062C103.172 10.8438 103.062 10.7031 102.938 10.4844C102.812 10.2969 102.656 10.0156 102.469 9.64062C102.25 9.26562 101.984 8.73438 101.672 8.04688C102.266 8.04688 102.922 8.04688 103.641 8.04688C104.328 8.04688 104.969 8.03125 105.562 8C106.25 7.96875 106.938 7.9375 107.625 7.90625C107.594 7.40625 107.578 6.875 107.578 6.3125C107.547 5.875 107.531 5.39063 107.531 4.85938C107.531 4.29688 107.516 3.78125 107.484 3.3125C107.484 3.125 107.703 2.90625 108.141 2.65625C108.609 2.375 109.109 2.125 109.641 1.90625C110.172 1.6875 110.656 1.54688 111.094 1.48438C111.562 1.42187 111.797 1.53125 111.797 1.8125C111.797 2.09375 111.781 2.78125 111.75 3.875C111.75 4.9375 111.719 6.23438 111.656 7.76562C111.969 7.76562 112.203 7.75 112.359 7.71875C114.016 7.65625 115.344 7.59375 116.344 7.53125C117.375 7.4375 118.219 7.42188 118.875 7.48438C119.531 7.54688 120.109 7.70312 120.609 7.95312C121.109 8.20312 121.672 8.60938 122.297 9.17188C122.516 9.35938 122.703 9.5625 122.859 9.78125C123.016 9.96875 123.141 10.1875 123.234 10.4375C123.359 10.6562 123.422 10.8906 123.422 11.1406ZM128.484 23.9375C128.422 25.1562 128.203 26.2812 127.828 27.3125C127.484 28.3438 127 29.25 126.375 30.0312C125.75 30.7812 125 31.375 124.125 31.8125C123.281 32.25 122.344 32.4844 121.312 32.5156C120.406 32.5469 119.547 32.3281 118.734 31.8594C117.953 31.3906 117.266 30.7344 116.672 29.8906C116.078 29.0469 115.625 28.0469 115.312 26.8906C115.031 25.7031 114.953 24.4219 115.078 23.0469C115.172 21.4531 115.469 20.0938 115.969 18.9688C116.469 17.8125 117 16.8594 117.562 16.1094C118.125 15.3594 118.641 14.8125 119.109 14.4688C119.609 14.0938 119.922 13.875 120.047 13.8125C120.266 13.7188 120.469 13.7031 120.656 13.7656C120.844 13.7969 121.047 13.8438 121.266 13.9062C121.328 13.9375 121.391 14.0156 121.453 14.1406C121.578 14.3594 121.656 14.7656 121.688 15.3594C121.844 15.0156 122.047 14.7344 122.297 14.5156C122.547 14.2969 122.797 14.1406 123.047 14.0469C123.359 13.9219 123.672 13.8438 123.984 13.8125C124.203 13.7812 124.578 13.9531 125.109 14.3281C125.672 14.7031 126.203 15.2969 126.703 16.1094C127.234 16.9219 127.688 17.9844 128.062 19.2969C128.438 20.5781 128.578 22.125 128.484 23.9375ZM125.297 23.375C125.328 22.625 125.297 21.875 125.203 21.125C125.141 20.3438 125.016 19.6406 124.828 19.0156C124.672 18.3594 124.469 17.8438 124.219 17.4688C123.969 17.0625 123.719 16.8594 123.469 16.8594C123.188 16.9219 122.875 17.0625 122.531 17.2812C122.25 17.4688 121.938 17.7656 121.594 18.1719C121.25 18.5781 120.922 19.1562 120.609 19.9062C120.578 19.8125 120.547 19.6406 120.516 19.3906C120.484 19.1719 120.453 18.8906 120.422 18.5469C120.422 18.1719 120.453 17.6719 120.516 17.0469C120.078 17.5781 119.734 18.2031 119.484 18.9219C119.266 19.6406 119.094 20.3281 118.969 20.9844C118.844 21.7656 118.75 22.5469 118.688 23.3281C118.656 24.1719 118.688 25 118.781 25.8125C118.906 26.625 119.094 27.3438 119.344 27.9688C119.625 28.5938 119.953 29.0938 120.328 29.4688C120.703 29.8438 121.156 30.0156 121.688 29.9844C122.219 29.9531 122.688 29.7344 123.094 29.3281C123.5 28.9219 123.859 28.4062 124.172 27.7812C124.484 27.1562 124.734 26.4531 124.922 25.6719C125.109 24.8906 125.234 24.125 125.297 23.375ZM143.719 17.6094C143.719 18.0469 143.594 18.5 143.344 18.9688C143.125 19.4062 142.844 19.8281 142.5 20.2344C142.156 20.6406 141.766 21 141.328 21.3125C140.922 21.5938 140.531 21.7656 140.156 21.8281C140.406 20.8594 140.484 20.1094 140.391 19.5781C140.297 19.0469 140.141 18.6562 139.922 18.4062C139.672 18.125 139.359 17.9688 138.984 17.9375C138.422 17.9375 137.875 18.2656 137.344 18.9219C136.844 19.5469 136.406 20.3281 136.031 21.2656C135.656 22.1719 135.359 23.1562 135.141 24.2188C134.922 25.25 134.812 26.1875 134.812 27.0312C134.781 27.625 134.797 28.2031 134.859 28.7656C134.891 29.2344 134.938 29.7188 135 30.2188C135.094 30.7188 135.219 31.1094 135.375 31.3906C135.188 31.5469 134.875 31.7344 134.438 31.9531C134.031 32.1719 133.594 32.3125 133.125 32.375C132.688 32.4375 132.281 32.3594 131.906 32.1406C131.562 31.9219 131.375 31.4531 131.344 30.7344C131.281 30.0469 131.234 29.2812 131.203 28.4375C131.203 27.5625 131.203 26.7031 131.203 25.8594C131.234 24.9844 131.266 24.125 131.297 23.2812C131.328 22.4375 131.375 21.6562 131.438 20.9375C131.5 19.5625 131.531 18.5 131.531 17.75C131.531 17 131.516 16.2812 131.484 15.5938C131.484 15.4688 131.688 15.2969 132.094 15.0781C132.531 14.8281 133 14.6094 133.5 14.4219C134.031 14.2344 134.516 14.125 134.953 14.0938C135.391 14.0625 135.609 14.1562 135.609 14.375C135.609 14.7188 135.562 15.4062 135.469 16.4375C135.406 17.4375 135.312 18.4844 135.188 19.5781C135.406 18.9844 135.688 18.3438 136.031 17.6562C136.406 16.9688 136.828 16.3281 137.297 15.7344C137.766 15.1406 138.297 14.6562 138.891 14.2812C139.484 13.875 140.141 13.6719 140.859 13.6719C141.422 13.6719 141.875 13.8438 142.219 14.1875C142.594 14.5312 142.891 14.9219 143.109 15.3594C143.328 15.7969 143.484 16.2344 143.578 16.6719C143.672 17.1094 143.719 17.4219 143.719 17.6094ZM151.5 32.5156C149.312 32.5156 147.625 31.7812 146.438 30.3125C145.25 28.8438 144.656 26.9219 144.656 24.5469C144.656 22.8906 144.891 21.3438 145.359 19.9062C145.859 18.4375 146.516 17.1719 147.328 16.1094C148.141 15.0469 149.078 14.2188 150.141 13.625C151.234 13 152.375 12.6875 153.562 12.6875C154.719 12.6875 155.703 13.1094 156.516 13.9531C157.328 14.7656 157.734 15.9375 157.734 17.4688C157.734 18.4688 157.516 19.4688 157.078 20.4688C156.641 21.4375 156.062 22.3125 155.344 23.0938C154.656 23.8438 153.891 24.4531 153.047 24.9219C152.203 25.3906 151.391 25.625 150.609 25.625C150.109 25.625 149.688 25.5625 149.344 25.4375C149 25.3125 148.688 25.125 148.406 24.875C148.5 26.6562 148.891 27.9062 149.578 28.625C150.266 29.3125 151.156 29.6562 152.25 29.6562C153 29.6562 153.656 29.5 154.219 29.1875C154.812 28.875 155.312 28.5156 155.719 28.1094C156.125 27.7031 156.453 27.2969 156.703 26.8906C156.953 26.4531 157.125 26.125 157.219 25.9062C157.312 25.7188 157.469 25.625 157.688 25.625C157.938 25.625 158.062 25.8125 158.062 26.1875C158.062 26.5312 157.938 27.0625 157.688 27.7812C157.469 28.4688 157.094 29.1719 156.562 29.8906C156.031 30.5781 155.344 31.1875 154.5 31.7188C153.688 32.25 152.688 32.5156 151.5 32.5156ZM153.656 14.7031C153.469 14.7031 153.109 14.9062 152.578 15.3125C152.078 15.6875 151.531 16.25 150.938 17C150.375 17.75 149.844 18.6562 149.344 19.7188C148.875 20.75 148.578 21.9219 148.453 23.2344C150.328 22.7969 151.812 22.1094 152.906 21.1719C154 20.2344 154.547 18.8594 154.547 17.0469C154.547 16.1406 154.438 15.5312 154.219 15.2188C154 14.875 153.812 14.7031 153.656 14.7031Z" fill="black"/>
</g>
<defs>
<filter id="filter0_d" x="0.875" y="0.171875" width="161.188" height="43.9062" filterUnits="userSpaceOnUse" color-interpolation-filters="sRGB">
<feFlood flood-opacity="0" result="BackgroundImageFix"/>
<feColorMatrix in="SourceAlpha" type="matrix" values="0 0 0 0 0 0 0 0 0 0 0 0 0 0 0 0 0 0 127 0"/>
<feOffset dy="4"/>
<feGaussianBlur stdDeviation="2"/>
<feColorMatrix type="matrix" values="0 0 0 0 0 0 0 0 0 0 0 0 0 0 0 0 0 0 0.25 0"/>
<feBlend mode="normal" in2="BackgroundImageFix" result="effect1_dropShadow"/>
<feBlend mode="normal" in="SourceGraphic" in2="effect1_dropShadow" result="shape"/>
</filter>
</defs>
</svg>
